<?xml version="1.0" encoding="UTF-8"?>
<svg version="1.1" xmlns="http://www.w3.org/2000/svg" width="110px" height="120px">
<g fill="#FFF" stroke="#000" stroke-linejoin="round">
 <path d="M19.922,49.534c-8.686-0.001-18.22,4.902-18.188,15.875  c0.189,12.536,11.38,18.403,20.49,9.446c-3.374,0.004-4.97-1.899-4.99-5.104c-0.021-3.012,2.543-7.459,7.156-7.438  c9.041,0.042,17.717,8.839,17.688,18.595c-0.014,4.859-1.021,11.484-6.688,11.594c-2.69,0.053-6.705-0.865-8.688-4.094  c-2.4,6.855,2.143,11.535,8.375,11.469c8.291-0.089,13.7-8.915,13.781-19C48.983,65.43,34.158,49.536,19.922,49.534z M90.078,49.534  c8.686-0.001,18.219,4.902,18.188,15.875c-0.189,12.536-11.379,18.403-20.49,9.446c3.375,0.004,4.97-1.899,4.99-5.104  c0.021-3.012-2.543-7.459-7.156-7.438c-9.041,0.042-17.717,8.839-17.688,18.595c0.014,4.859,1.021,11.484,6.688,11.594  c2.69,0.053,6.705-0.865,8.688-4.094c2.399,6.855-2.142,11.535-8.375,11.469c-8.291-0.089-13.7-8.915-13.78-19  C61.016,65.43,75.842,49.536,90.078,49.534z M55,2.322c-8.203,6.593-19.383,17.207-19.293,26.33  c0.18,18.188,15.229,36.926,15.084,48.285c-0.175,13.875-3.994,24.014-12.546,24.067c8.552,4.646,8.552,4.646,16.755,16.673  c7.54-12.027,7.54-12.027,16.393-16.31c-8.853-0.421-12.244-10.522-12.365-24.612C58.93,65.419,74.432,46.84,74.293,28.652  C74.223,19.512,62.54,8.839,55,2.322z"/>
 <path d="M40.065,78.05c-3.188-0.183-3.554,5.269,0,5.272  c15.185-0.088,15.185-0.079,29.7,0c3.816,0.098,3.371-5.455,0-5.272C55.25,77.867,55.25,77.867,40.065,78.05z"/>
</g>
</svg>