<?xml version="1.0" encoding="UTF-8"?>
<svg xmlns="http://www.w3.org/2000/svg" xmlns:xlink="http://www.w3.org/1999/xlink" width="600pt" height="400pt" viewBox="0 0 600 400" version="1.1">
<g id="surface1">
<path style="fill-rule:nonzero;fill:rgb(0%,0%,100%);fill-opacity:0.8;stroke-width:2;stroke-linecap:butt;stroke-linejoin:miter;stroke:rgb(0%,0%,100%);stroke-opacity:1;stroke-miterlimit:10;" d="M 250 300 L 350 300 L 350 400 L 250 400 Z M 250 300 "/>
<path style="fill-rule:nonzero;fill:rgb(0%,0%,100%);fill-opacity:0.8;stroke-width:2;stroke-linecap:butt;stroke-linejoin:miter;stroke:rgb(0%,0%,100%);stroke-opacity:1;stroke-miterlimit:10;" d="M -0.000000000000007105 -70.710678 L 70.710678 -70.710678 L 70.710678 0 L 0 0 Z M -0.000000000000007105 -70.710678 " transform="matrix(0.707107,-0.707107,0.707107,0.707107,250,300)"/>
<path style="fill-rule:nonzero;fill:rgb(0%,0%,100%);fill-opacity:0.8;stroke-width:2;stroke-linecap:butt;stroke-linejoin:miter;stroke:rgb(0%,0%,100%);stroke-opacity:1;stroke-miterlimit:10;" d="M 0 -50 L 50 -50 L 50 -0.000000000000028422 L 0 -0.000000000000028422 Z M 0 -50 " transform="matrix(0.000000000000000157,-1,1,0.000000000000000157,200,250)"/>
<path style="fill-rule:nonzero;fill:rgb(0%,0%,100%);fill-opacity:0.8;stroke-width:2;stroke-linecap:butt;stroke-linejoin:miter;stroke:rgb(0%,0%,100%);stroke-opacity:1;stroke-miterlimit:10;" d="M 0 -35.355339 L 35.355339 -35.355339 L 35.355339 -0.000000000000028422 L 0 -0.000000000000014211 Z M 0 -35.355339 " transform="matrix(-0.707107,-0.707107,0.707107,-0.707107,150,250)"/>
<path style="fill-rule:nonzero;fill:rgb(0%,0%,100%);fill-opacity:0.8;stroke-width:2;stroke-linecap:butt;stroke-linejoin:miter;stroke:rgb(0%,0%,100%);stroke-opacity:1;stroke-miterlimit:10;" d="M -0.000000000000014211 -25 L 25 -25 L 25 0 L 0 0 Z M -0.000000000000014211 -25 " transform="matrix(-1,-0.000000000000000314,0.000000000000000314,-1,125,275)"/>
<path style="fill-rule:nonzero;fill:rgb(0%,0%,100%);fill-opacity:0.8;stroke-width:2;stroke-linecap:butt;stroke-linejoin:miter;stroke:rgb(0%,0%,100%);stroke-opacity:1;stroke-miterlimit:10;" d="M -25 -25 L -0.000000000000056843 -25 L -0.000000000000028422 0 L -25 0 Z M -25 -25 " transform="matrix(0.000000000000000157,-1,1,0.000000000000000157,100,250)"/>
<path style="fill-rule:nonzero;fill:rgb(0%,0%,100%);fill-opacity:0.8;stroke-width:2;stroke-linecap:butt;stroke-linejoin:miter;stroke:rgb(0%,0%,100%);stroke-opacity:1;stroke-miterlimit:10;" d="M -35.355339 -35.355339 L -0.000000000000021316 -35.355339 L -0.000000000000021316 0 L -35.355339 0 Z M -35.355339 -35.355339 " transform="matrix(0.707107,-0.707107,0.707107,0.707107,150,200)"/>
<path style="fill-rule:nonzero;fill:rgb(0%,0%,100%);fill-opacity:0.8;stroke-width:2;stroke-linecap:butt;stroke-linejoin:miter;stroke:rgb(0%,0%,100%);stroke-opacity:1;stroke-miterlimit:10;" d="M -0.000000000000028422 -25 L 25 -25 L 25 -0.000000000000014211 L 0 -0.000000000000014211 Z M -0.000000000000028422 -25 " transform="matrix(0.000000000000000157,-1,1,0.000000000000000157,100,200)"/>
<path style="fill-rule:nonzero;fill:rgb(0%,0%,100%);fill-opacity:0.8;stroke-width:2;stroke-linecap:butt;stroke-linejoin:miter;stroke:rgb(0%,0%,100%);stroke-opacity:1;stroke-miterlimit:10;" d="M -25 -25 L -0.000000000000014211 -25 L -0.000000000000014211 0.000000000000028422 L -25 0.000000000000028422 Z M -25 -25 " transform="matrix(1,0,0,1,125,175)"/>
<path style="fill-rule:nonzero;fill:rgb(0%,0%,100%);fill-opacity:0.8;stroke-width:2;stroke-linecap:butt;stroke-linejoin:miter;stroke:rgb(0%,0%,100%);stroke-opacity:1;stroke-miterlimit:10;" d="M -50 -50 L -0.000000000000028422 -50 L -0.000000000000028422 0 L -50 0 Z M -50 -50 " transform="matrix(1,0,0,1,250,200)"/>
<path style="fill-rule:nonzero;fill:rgb(0%,0%,100%);fill-opacity:0.8;stroke-width:2;stroke-linecap:butt;stroke-linejoin:miter;stroke:rgb(0%,0%,100%);stroke-opacity:1;stroke-miterlimit:10;" d="M -0.000000000000021316 -35.355339 L 35.355339 -35.355339 L 35.355339 -0.000000000000028422 L -0.000000000000021316 -0.000000000000028422 Z M -0.000000000000021316 -35.355339 " transform="matrix(0.707107,-0.707107,0.707107,0.707107,200,150)"/>
<path style="fill-rule:nonzero;fill:rgb(0%,0%,100%);fill-opacity:0.8;stroke-width:2;stroke-linecap:butt;stroke-linejoin:miter;stroke:rgb(0%,0%,100%);stroke-opacity:1;stroke-miterlimit:10;" d="M 0 -25 L 25 -25 L 25 0 L 0 0 Z M 0 -25 " transform="matrix(0.000000000000000157,-1,1,0.000000000000000157,175,125)"/>
<path style="fill-rule:nonzero;fill:rgb(0%,0%,100%);fill-opacity:0.8;stroke-width:2;stroke-linecap:butt;stroke-linejoin:miter;stroke:rgb(0%,0%,100%);stroke-opacity:1;stroke-miterlimit:10;" d="M -25 -25 L -0.000000000000028422 -25 L -0.000000000000028422 0 L -25 0 Z M -25 -25 " transform="matrix(1,0,0,1,200,100)"/>
<path style="fill-rule:nonzero;fill:rgb(0%,0%,100%);fill-opacity:0.8;stroke-width:2;stroke-linecap:butt;stroke-linejoin:miter;stroke:rgb(0%,0%,100%);stroke-opacity:1;stroke-miterlimit:10;" d="M -35.355339 -35.355339 L 0 -35.355339 L 0 0.000000000000028422 L -35.355339 0.000000000000028422 Z M -35.355339 -35.355339 " transform="matrix(0.707107,0.707107,-0.707107,0.707107,250,150)"/>
<path style="fill-rule:nonzero;fill:rgb(0%,0%,100%);fill-opacity:0.8;stroke-width:2;stroke-linecap:butt;stroke-linejoin:miter;stroke:rgb(0%,0%,100%);stroke-opacity:1;stroke-miterlimit:10;" d="M -0.000000000000028422 -25 L 25 -25 L 25 0.000000000000014211 L -0.000000000000028422 0.000000000000014211 Z M -0.000000000000028422 -25 " transform="matrix(1,0,0,1,250,100)"/>
<path style="fill-rule:nonzero;fill:rgb(0%,0%,100%);fill-opacity:0.8;stroke-width:2;stroke-linecap:butt;stroke-linejoin:miter;stroke:rgb(0%,0%,100%);stroke-opacity:1;stroke-miterlimit:10;" d="M -25 -25 L 0.000000000000014211 -25 L 0.000000000000014211 0 L -25 0 Z M -25 -25 " transform="matrix(0.000000000000000157,1,-1,0.000000000000000157,275,125)"/>
<path style="fill-rule:nonzero;fill:rgb(0%,0%,100%);fill-opacity:0.8;stroke-width:2;stroke-linecap:butt;stroke-linejoin:miter;stroke:rgb(0%,0%,100%);stroke-opacity:1;stroke-miterlimit:10;" d="M -70.710678 -70.710678 L 0 -70.710678 L 0 0 L -70.710678 0 Z M -70.710678 -70.710678 " transform="matrix(0.707107,0.707107,-0.707107,0.707107,350,300)"/>
<path style="fill-rule:nonzero;fill:rgb(0%,0%,100%);fill-opacity:0.8;stroke-width:2;stroke-linecap:butt;stroke-linejoin:miter;stroke:rgb(0%,0%,100%);stroke-opacity:1;stroke-miterlimit:10;" d="M 0 -50 L 50 -50 L 50 0 L 0 0 Z M 0 -50 " transform="matrix(1,0,0,1,350,200)"/>
<path style="fill-rule:nonzero;fill:rgb(0%,0%,100%);fill-opacity:0.8;stroke-width:2;stroke-linecap:butt;stroke-linejoin:miter;stroke:rgb(0%,0%,100%);stroke-opacity:1;stroke-miterlimit:10;" d="M 0 -35.355339 L 35.355339 -35.355339 L 35.355339 -0.000000000000056843 L 0 0 Z M 0 -35.355339 " transform="matrix(0.707107,-0.707107,0.707107,0.707107,350,150)"/>
<path style="fill-rule:nonzero;fill:rgb(0%,0%,100%);fill-opacity:0.8;stroke-width:2;stroke-linecap:butt;stroke-linejoin:miter;stroke:rgb(0%,0%,100%);stroke-opacity:1;stroke-miterlimit:10;" d="M 0 -25 L 25 -25 L 25 -0.000000000000056843 L 0.000000000000014211 -0.000000000000056843 Z M 0 -25 " transform="matrix(0.000000000000000157,-1,1,0.000000000000000157,325,125)"/>
<path style="fill-rule:nonzero;fill:rgb(0%,0%,100%);fill-opacity:0.8;stroke-width:2;stroke-linecap:butt;stroke-linejoin:miter;stroke:rgb(0%,0%,100%);stroke-opacity:1;stroke-miterlimit:10;" d="M -25 -25 L 0 -25 L 0 -0.000000000000014211 L -25 -0.000000000000014211 Z M -25 -25 " transform="matrix(1,0,0,1,350,100)"/>
<path style="fill-rule:nonzero;fill:rgb(0%,0%,100%);fill-opacity:0.8;stroke-width:2;stroke-linecap:butt;stroke-linejoin:miter;stroke:rgb(0%,0%,100%);stroke-opacity:1;stroke-miterlimit:10;" d="M -35.355339 -35.355339 L 0 -35.355339 L 0 0 L -35.355339 0 Z M -35.355339 -35.355339 " transform="matrix(0.707107,0.707107,-0.707107,0.707107,400,150)"/>
<path style="fill-rule:nonzero;fill:rgb(0%,0%,100%);fill-opacity:0.8;stroke-width:2;stroke-linecap:butt;stroke-linejoin:miter;stroke:rgb(0%,0%,100%);stroke-opacity:1;stroke-miterlimit:10;" d="M 0 -25 L 25 -25 L 25 0.000000000000014211 L 0 0.000000000000014211 Z M 0 -25 " transform="matrix(1,0,0,1,400,100)"/>
<path style="fill-rule:nonzero;fill:rgb(0%,0%,100%);fill-opacity:0.8;stroke-width:2;stroke-linecap:butt;stroke-linejoin:miter;stroke:rgb(0%,0%,100%);stroke-opacity:1;stroke-miterlimit:10;" d="M -25 -25 L 0.000000000000014211 -25 L 0.000000000000014211 0 L -25 0 Z M -25 -25 " transform="matrix(0.000000000000000157,1,-1,0.000000000000000157,425,125)"/>
<path style="fill-rule:nonzero;fill:rgb(0%,0%,100%);fill-opacity:0.8;stroke-width:2;stroke-linecap:butt;stroke-linejoin:miter;stroke:rgb(0%,0%,100%);stroke-opacity:1;stroke-miterlimit:10;" d="M -50 -50 L 0 -50 L 0 0 L -50 0 Z M -50 -50 " transform="matrix(0.000000000000000157,1,-1,0.000000000000000157,400,250)"/>
<path style="fill-rule:nonzero;fill:rgb(0%,0%,100%);fill-opacity:0.8;stroke-width:2;stroke-linecap:butt;stroke-linejoin:miter;stroke:rgb(0%,0%,100%);stroke-opacity:1;stroke-miterlimit:10;" d="M 0.000000000000056843 -35.355339 L 35.355339 -35.355339 L 35.355339 0 L 0.000000000000056843 0 Z M 0.000000000000056843 -35.355339 " transform="matrix(0.707107,0.707107,-0.707107,0.707107,450,200)"/>
<path style="fill-rule:nonzero;fill:rgb(0%,0%,100%);fill-opacity:0.8;stroke-width:2;stroke-linecap:butt;stroke-linejoin:miter;stroke:rgb(0%,0%,100%);stroke-opacity:1;stroke-miterlimit:10;" d="M 0.000000000000056843 -25 L 25 -25 L 25 0.000000000000028422 L 0.000000000000056843 0.000000000000028422 Z M 0.000000000000056843 -25 " transform="matrix(1,0,0,1,475,175)"/>
<path style="fill-rule:nonzero;fill:rgb(0%,0%,100%);fill-opacity:0.8;stroke-width:2;stroke-linecap:butt;stroke-linejoin:miter;stroke:rgb(0%,0%,100%);stroke-opacity:1;stroke-miterlimit:10;" d="M -25 -25 L 0.000000000000028422 -25 L 0.000000000000028422 0 L -25 -0.000000000000056843 Z M -25 -25 " transform="matrix(0.000000000000000157,1,-1,0.000000000000000157,500,200)"/>
<path style="fill-rule:nonzero;fill:rgb(0%,0%,100%);fill-opacity:0.8;stroke-width:2;stroke-linecap:butt;stroke-linejoin:miter;stroke:rgb(0%,0%,100%);stroke-opacity:1;stroke-miterlimit:10;" d="M -35.355339 -35.355339 L 0.000000000000028422 -35.355339 L 0 0 L -35.355339 0 Z M -35.355339 -35.355339 " transform="matrix(-0.707107,0.707107,-0.707107,-0.707107,450,250)"/>
<path style="fill-rule:nonzero;fill:rgb(0%,0%,100%);fill-opacity:0.8;stroke-width:2;stroke-linecap:butt;stroke-linejoin:miter;stroke:rgb(0%,0%,100%);stroke-opacity:1;stroke-miterlimit:10;" d="M 0.000000000000085265 -25 L 25 -25 L 25 -0.000000000000056843 L 0.000000000000085265 -0.000000000000056843 Z M 0.000000000000085265 -25 " transform="matrix(0.000000000000000157,1,-1,0.000000000000000157,500,250)"/>
<path style="fill-rule:nonzero;fill:rgb(0%,0%,100%);fill-opacity:0.8;stroke-width:2;stroke-linecap:butt;stroke-linejoin:miter;stroke:rgb(0%,0%,100%);stroke-opacity:1;stroke-miterlimit:10;" d="M -25 -25 L 0 -25 L 0 -0.000000000000113687 L -25 -0.000000000000113687 Z M -25 -25 " transform="matrix(-1,0.000000000000000314,-0.000000000000000314,-1,475,275)"/>
</g>
</svg>
